<?xml version="1.0" encoding="UTF-8" standalone="no"?>
<!DOCTYPE svg PUBLIC "-//W3C//DTD SVG 1.1//EN" "http://www.w3.org/Graphics/SVG/1.1/DTD/svg11.dtd">
<svg width="100%" height="100%" viewBox="0 0 600 394" version="1.1" xmlns="http://www.w3.org/2000/svg" xmlns:xlink="http://www.w3.org/1999/xlink" xml:space="preserve" xmlns:serif="http://www.serif.com/" style="fill-rule:evenodd;clip-rule:evenodd;stroke-linejoin:round;">
    <rect id="Artboard1" x="0" y="0" width="600" height="393.118" style="fill:none;"/>
    <g id="Artboard11" serif:id="Artboard1">
        <g transform="matrix(1,0,0,0.982796,0,0)">
            <rect x="0" y="0" width="600" height="400" style="fill:white;"/>
        </g>
        <rect x="50.593" y="11.811" width="537.597" height="344.594" style="fill:white;"/>
        <text x="334.349px" y="269.976px" style="font-family:'ArialMT', 'Arial', sans-serif;font-size:15px;">zero prime neighbors</text>
        <g transform="matrix(1,0,0,1,144.966,-34.208)">
            <text x="334.349px" y="269.976px" style="font-family:'ArialMT', 'Arial', sans-serif;font-size:15px;">overall average</text>
        </g>
        <g transform="matrix(1,0,0,1,-99.1967,-114.492)">
            <text x="334.349px" y="269.976px" style="font-family:'ArialMT', 'Arial', sans-serif;font-size:15px;">one prime neighbor</text>
        </g>
        <g transform="matrix(1,0,0,1,-271.16,-227.061)">
            <text x="334.349px" y="269.976px" style="font-family:'ArialMT', 'Arial', sans-serif;font-size:15px;">two prime neighbors</text>
        </g>
        <path d="M50.593,356.405L50.593,11.811" style="fill:none;fill-rule:nonzero;stroke:black;stroke-opacity:0.1;stroke-width:0.5px;"/>
        <path d="M157.898,356.405L157.898,11.811" style="fill:none;fill-rule:nonzero;stroke:black;stroke-opacity:0.1;stroke-width:0.5px;"/>
        <path d="M265.203,356.405L265.203,11.811" style="fill:none;fill-rule:nonzero;stroke:black;stroke-opacity:0.1;stroke-width:0.5px;"/>
        <path d="M372.508,356.405L372.508,11.811" style="fill:none;fill-rule:nonzero;stroke:black;stroke-opacity:0.1;stroke-width:0.5px;"/>
        <path d="M479.813,356.405L479.813,11.811" style="fill:none;fill-rule:nonzero;stroke:black;stroke-opacity:0.1;stroke-width:0.5px;"/>
        <path d="M587.115,356.405L587.115,11.811" style="fill:none;fill-rule:nonzero;stroke:black;stroke-opacity:0.1;stroke-width:0.5px;"/>
        <path d="M50.593,356.405L588.19,356.405" style="fill:none;fill-rule:nonzero;stroke:black;stroke-width:1px;"/>
        <path d="M50.593,356.405L50.593,351.68" style="fill:none;fill-rule:nonzero;stroke:black;stroke-width:1px;"/>
        <path d="M157.898,356.405L157.898,351.68" style="fill:none;fill-rule:nonzero;stroke:black;stroke-width:1px;"/>
        <path d="M265.203,356.405L265.203,351.68" style="fill:none;fill-rule:nonzero;stroke:black;stroke-width:1px;"/>
        <path d="M372.508,356.405L372.508,351.68" style="fill:none;fill-rule:nonzero;stroke:black;stroke-width:1px;"/>
        <path d="M479.813,356.405L479.813,351.68" style="fill:none;fill-rule:nonzero;stroke:black;stroke-width:1px;"/>
        <path d="M587.115,356.405L587.115,351.68" style="fill:none;fill-rule:nonzero;stroke:black;stroke-width:1px;"/>
        <g transform="matrix(1,0,0,1,50.5932,371.868)">
            <text x="-3.337px" y="0px" style="font-family:'ArialMT', 'Arial', sans-serif;font-size:12px;">0</text>
        </g>
        <g transform="matrix(1,0,0,1,157.898,371.868)">
            <text x="-6.674px" y="0px" style="font-family:'ArialMT', 'Arial', sans-serif;font-size:12px;">20</text>
        </g>
        <g transform="matrix(1,0,0,1,265.202,371.868)">
            <text x="-6.674px" y="0px" style="font-family:'ArialMT', 'Arial', sans-serif;font-size:12px;">40</text>
        </g>
        <g transform="matrix(1,0,0,1,372.507,371.868)">
            <text x="-6.674px" y="0px" style="font-family:'ArialMT', 'Arial', sans-serif;font-size:12px;">60</text>
        </g>
        <g transform="matrix(1,0,0,1,479.812,371.868)">
            <text x="-6.674px" y="0px" style="font-family:'ArialMT', 'Arial', sans-serif;font-size:12px;">80</text>
        </g>
        <g transform="matrix(1,0,0,1,587.115,371.868)">
            <text x="-10.011px" y="0px" style="font-family:'ArialMT', 'Arial', sans-serif;font-size:12px;">100</text>
        </g>
        <g transform="matrix(1,0,0,1,319.39,385.87)">
            <g>
                <text x="-36.255px" y="0px" style="font-family:'Arial-ItalicMT', 'Arial', sans-serif;font-style:italic;font-size:15px;">n</text>
                <text x="-23.745px" y="0px" style="font-family:'ArialMT', 'Arial', sans-serif;font-size:15px;">(millions)</text>
            </g>
        </g>
        <path d="M50.593,356.405L588.19,356.405" style="fill:none;fill-rule:nonzero;stroke:black;stroke-opacity:0.1;stroke-width:0.5px;"/>
        <path d="M50.593,298.303L588.19,298.303" style="fill:none;fill-rule:nonzero;stroke:black;stroke-opacity:0.1;stroke-width:0.5px;"/>
        <path d="M50.593,240.2L588.19,240.2" style="fill:none;fill-rule:nonzero;stroke:black;stroke-opacity:0.1;stroke-width:0.5px;"/>
        <path d="M50.593,182.098L588.19,182.098" style="fill:none;fill-rule:nonzero;stroke:black;stroke-opacity:0.1;stroke-width:0.5px;"/>
        <path d="M50.593,123.995L588.19,123.995" style="fill:none;fill-rule:nonzero;stroke:black;stroke-opacity:0.1;stroke-width:0.5px;"/>
        <path d="M50.593,65.893L588.19,65.893" style="fill:none;fill-rule:nonzero;stroke:black;stroke-opacity:0.1;stroke-width:0.5px;"/>
        <path d="M50.593,356.405L50.593,11.811" style="fill:none;fill-rule:nonzero;stroke:black;stroke-width:1px;"/>
        <path d="M50.593,356.405L55.318,356.405" style="fill:none;fill-rule:nonzero;stroke:black;stroke-width:1px;"/>
        <path d="M50.593,298.303L55.318,298.303" style="fill:none;fill-rule:nonzero;stroke:black;stroke-width:1px;"/>
        <path d="M50.593,240.2L55.318,240.2" style="fill:none;fill-rule:nonzero;stroke:black;stroke-width:1px;"/>
        <path d="M50.593,182.098L55.318,182.098" style="fill:none;fill-rule:nonzero;stroke:black;stroke-width:1px;"/>
        <path d="M50.593,123.995L55.318,123.995" style="fill:none;fill-rule:nonzero;stroke:black;stroke-width:1px;"/>
        <path d="M50.593,65.893L55.318,65.893" style="fill:none;fill-rule:nonzero;stroke:black;stroke-width:1px;"/>
        <g transform="matrix(1,0,0,1,38.248,360.78)">
            <text x="-3.337px" y="0px" style="font-family:'ArialMT', 'Arial', sans-serif;font-size:12px;">0</text>
        </g>
        <g transform="matrix(1,0,0,1,34.9027,302.678)">
            <text x="-6.674px" y="0px" style="font-family:'ArialMT', 'Arial', sans-serif;font-size:12px;">10</text>
        </g>
        <g transform="matrix(1,0,0,1,34.9027,244.575)">
            <text x="-6.674px" y="0px" style="font-family:'ArialMT', 'Arial', sans-serif;font-size:12px;">20</text>
        </g>
        <g transform="matrix(1,0,0,1,34.9027,186.473)">
            <text x="-6.674px" y="0px" style="font-family:'ArialMT', 'Arial', sans-serif;font-size:12px;">30</text>
        </g>
        <g transform="matrix(1,0,0,1,34.9027,128.37)">
            <text x="-6.674px" y="0px" style="font-family:'ArialMT', 'Arial', sans-serif;font-size:12px;">40</text>
        </g>
        <g transform="matrix(1,0,0,1,34.9027,70.268)">
            <text x="-6.674px" y="0px" style="font-family:'ArialMT', 'Arial', sans-serif;font-size:12px;">50</text>
        </g>
        <g transform="matrix(-3.82857e-16,-1,1,-3.82857e-16,16.3215,184.108)">
            <g>
                <text x="-124.244px" y="0px" style="font-family:'Arial-ItalicMT', 'Arial', sans-serif;font-style:italic;font-size:15px;">d(n)</text>
                <text x="-93.402px" y="0px" style="font-family:'ArialMT', 'Arial', sans-serif;font-size:15px;">averaged over blocks of 200,000</text>
            </g>
        </g>
        <path d="M51.666,294.565L52.739,286.785L53.812,283.66L54.886,281.858L55.959,280.25L57.032,279.148L58.105,278.138L59.178,277.385L60.251,276.61L61.324,275.955L62.397,275.39L63.47,274.83L64.543,274.44L65.616,273.913L66.689,273.648L67.762,273.188L68.835,272.753L69.908,272.34L70.981,272.045L72.054,271.96L73.127,271.445L74.2,271.325L75.273,271.135L76.346,270.828L77.419,270.508L78.493,270.205L79.566,270.173L80.638,269.835L81.712,269.74L82.784,269.568L83.858,269.215L84.931,269L86.004,268.945L87.077,268.745L88.15,268.638L89.223,268.333L90.296,268.29L91.369,267.928L92.442,267.868L93.515,267.768L94.588,267.678L95.661,267.42L96.734,267.478L97.807,267.388L98.88,267.01L99.953,266.92L101.026,266.765L102.1,266.745L103.173,266.575L104.246,266.363L105.319,266.315L106.391,266.338L107.465,266.193L108.538,266.053L109.611,266.055L110.684,265.713L111.757,265.68L112.83,265.695L113.903,265.608L114.976,265.33L116.049,265.313L117.122,265.193L118.195,265.203L119.268,265.205L120.341,264.748L121.414,264.705L122.487,264.848L123.56,264.675L124.633,264.705L125.707,264.325L126.78,264.39L127.853,264.368L128.926,264.288L129.999,264.09L131.072,263.967L132.145,264.035L133.218,263.97L134.291,263.895L135.364,263.733L136.437,263.84L137.51,263.588L138.583,263.53L139.656,263.505L140.729,263.605L141.802,263.488L142.875,263.34L143.948,263.483L145.021,263.085L146.094,263.063L147.167,263.198L148.24,262.953L149.314,262.898L150.387,262.97L151.46,262.773L152.533,262.773L153.606,262.575L154.679,262.7L155.752,262.608L156.825,262.55L157.898,262.515L158.971,262.225L160.044,262.225L161.117,262.23L162.19,262.058L163.263,262.225L164.336,262.185L165.409,262.02L166.482,261.993L167.555,261.97L168.628,261.93L169.701,261.748L170.774,261.65L171.847,261.623L172.921,261.652L173.994,261.805L175.067,261.58L176.14,261.663L177.213,261.345L178.286,261.295L179.359,261.332L180.432,261.435L181.505,261.42L182.578,261.267L183.651,261.03L184.724,261.14L185.797,261.125L186.87,260.92L187.943,261.168L189.016,260.837L190.089,260.952L191.162,260.88L192.235,260.815L193.308,260.83L194.381,260.707L195.454,260.845L196.528,260.735L197.601,260.585L198.674,260.668L199.747,260.483L200.82,260.435L201.893,260.46L202.966,260.392L204.039,260.387L205.112,260.323L206.185,260.36L207.258,260.245L208.331,260.32L209.404,260.163L210.477,260.09L211.55,260.163L212.623,260.163L213.696,259.885L214.769,260.055L215.842,260.095L216.915,259.8L217.988,259.89L219.061,259.832L220.135,259.848L221.208,259.655L222.28,259.775L223.354,259.665L224.427,259.635L225.5,259.733L226.573,259.558L227.646,259.467L228.719,259.498L229.792,259.642L230.865,259.39L231.938,259.39L233.011,259.332L234.084,259.175L235.157,259.19L236.23,259.485L237.303,259.25L238.376,259.205L239.449,259.027L240.522,259.123L241.595,258.827L242.668,259.15L243.742,258.902L244.815,259.01L245.887,259.098L246.961,258.952L248.034,258.863L249.107,258.79L250.18,258.892L251.253,258.785L252.325,258.762L253.4,258.68L254.473,258.615L255.545,258.82L256.618,258.743L257.69,258.673L258.765,258.642L259.837,258.623L260.91,258.555L261.983,258.543L263.055,258.527L264.13,258.47L265.203,258.32L266.275,258.385L267.348,258.345L268.423,258.413L269.495,258.585L270.568,258.178L271.64,258.425L272.713,258.03L273.788,258.353L274.86,258.318L275.933,258.098L277.005,258.275L278.08,258.125L279.152,257.967L280.225,258.06L281.298,257.785L282.37,258.165L283.445,257.745L284.518,257.925L285.59,258.07L286.663,257.938L287.738,257.87L288.81,257.58L289.883,257.875L290.955,257.685L292.027,257.82L293.103,257.705L294.175,257.82L295.248,257.65L296.32,257.69L297.393,257.545L298.467,257.457L299.54,257.618L300.613,257.533L301.685,257.45L302.76,257.395L303.833,257.58L304.905,257.438L305.978,257.42L307.05,257.193L308.125,257.348L309.198,257.443L310.27,257.17L311.342,257.155L312.418,257.163L313.49,257.188L314.563,257.095L315.635,257.163L316.708,257.115L317.783,257.163L318.855,257.14L319.928,257.225L321,257.24L322.073,257.17L323.148,257.045L324.22,256.948L325.293,256.913L326.365,257.16L327.44,257.07L328.513,257.053L329.585,257.092L330.658,256.73L331.73,257.035L332.805,256.96L333.878,256.77L334.95,256.842L336.023,256.693L337.098,256.712L338.17,256.693L339.243,256.628L340.315,256.618L341.388,256.675L342.462,256.587L343.535,256.595L344.608,256.615L345.68,256.59L346.755,256.753L347.828,256.575L348.9,256.283L349.973,256.538L351.045,256.52L352.12,256.587L353.193,256.337L354.265,256.315L355.337,256.368L356.41,256.225L357.485,256.22L358.558,256.305L359.63,256.4L360.703,256.123L361.777,256.2L362.85,256.325L363.923,256.25L364.995,256.283L366.068,256.32L367.143,256.087L368.215,256.16L369.288,256.05L370.36,256.087L371.435,256.28L372.508,256.223L373.58,256.125L374.652,256.118L375.725,256.005L376.8,256.053L377.873,256.022L378.945,255.818L380.018,255.93L381.09,255.925L382.165,255.77L383.238,256.02L384.31,255.765L385.383,255.905L386.458,255.753L387.53,255.808L388.603,255.755L389.675,255.818L390.748,255.743L391.823,255.84L392.895,255.758L393.967,255.67L395.04,255.71L396.115,255.755L397.188,255.68L398.26,255.667L399.333,255.565L400.405,255.685L401.48,255.368L402.553,255.565L403.625,255.493L404.698,255.708L405.773,255.415L406.845,255.738L407.918,255.38L408.99,255.49L410.063,255.298L411.138,255.35L412.21,255.558L413.283,255.218L414.355,255.31L415.428,255.325L416.503,255.253L417.575,255.36L418.647,255.262L419.72,255.173L420.795,255.228L421.868,255.298L422.94,255.103L424.013,255.083L425.085,255.315L426.16,254.963L427.233,255.343L428.305,254.938L429.378,255.315L430.453,254.985L431.525,255.175L432.598,254.913L433.67,255.08L434.743,255.107L435.818,254.875L436.89,255.107L437.962,255.085L439.035,255.06L440.108,254.96L441.183,254.857L442.255,255.085L443.328,254.885L444.4,254.917L445.475,255.023L446.548,254.908L447.62,254.81L448.693,254.89L449.765,254.625L450.84,254.728L451.913,254.825L452.985,254.83L454.058,254.762L455.133,254.905L456.205,254.758L457.277,254.595L458.35,254.823L459.423,254.673L460.498,254.61L461.57,254.46L462.643,254.813L463.715,254.843L464.79,254.595L465.863,254.623L466.935,254.495L468.008,254.598L469.08,254.795L470.155,254.688L471.228,254.8L472.3,254.278L473.373,254.395L474.445,254.482L475.52,254.503L476.592,254.375L477.665,254.345L478.738,254.55L479.813,254.275L480.885,254.327L481.958,254.482L483.03,254.458L484.103,254.385L485.178,254.435L486.25,254.423L487.323,254.385L488.395,254.313L489.47,254.24L490.543,254.335L491.615,254.273L492.688,254.188L493.76,254.193L494.835,254.285L495.908,254.405L496.98,254.35L498.053,254.14L499.125,254.055L500.2,254.183L501.272,254.288L502.345,253.873L503.418,254.11L504.493,253.993L505.565,254.18L506.638,253.895L507.71,254.068L508.783,254.155L509.858,254.015L510.93,254.068L512.003,253.848L513.075,253.998L514.15,253.958L515.222,253.955L516.295,253.933L517.367,253.973L518.44,253.683L519.515,253.93L520.587,253.825L521.66,253.713L522.732,253.943L523.808,253.903L524.88,253.843L525.953,253.813L527.025,253.753L528.098,253.91L529.173,253.743L530.245,253.698L531.318,253.788L532.39,253.663L533.463,253.77L534.538,253.805L535.61,253.57L536.683,253.588L537.755,253.65L538.83,253.753L539.903,253.688L540.975,253.693L542.048,253.783L543.12,253.512L544.195,253.563L545.268,253.585L546.34,253.458L547.413,253.488L548.488,253.702L549.56,253.355L550.633,253.633L551.705,253.538L552.778,253.325L553.853,253.525L554.925,253.56L555.997,253.473L557.07,253.438L558.143,253.455L559.218,253.36L560.29,253.667L561.363,253.368L562.435,253.423L563.51,253.48L564.583,253.265L565.655,253.58L566.728,253.193L567.8,253.355L568.875,253.248L569.948,253.512L571.02,253.25L572.093,253.413L573.168,253.245L574.24,253.225L575.313,253.323L576.385,253.098L577.458,253.158L578.533,253.235L579.605,253.098L580.678,253.003L581.75,253.163L582.823,253.003L583.898,253.055L584.97,253.107L586.043,253.15L587.115,253.205" style="fill:none;fill-rule:nonzero;stroke:rgb(229,102,51);stroke-width:1.5px;"/>
        <path d="M51.666,239.592L52.739,222.891L53.812,217.827L54.886,212.974L55.959,210.985L57.032,208.903L58.105,206.625L59.178,204.244L60.251,203.819L61.324,202.886L62.397,201.834L63.47,201.157L64.543,199.151L65.616,198.525L66.689,196.78L67.762,196.637L68.835,196.542L69.908,196.068L70.981,196.258L72.054,193.393L73.127,194.713L74.2,192.444L75.273,192.125L76.346,191.481L77.419,192.633L78.493,191.926L79.566,190.537L80.638,190.164L81.712,189.129L82.784,189.011L83.858,189.75L84.931,189.53L86.004,188.231L87.077,187.869L88.15,188.08L89.223,188.056L90.296,186.252L91.369,188.163L92.442,186.795L93.515,186.8L94.588,185.835L95.661,186.524L96.734,184.426L97.807,184.379L98.88,185.671L99.953,184.845L101.026,185.25L102.1,183.771L103.173,184.095L104.246,183.843L105.319,184.016L106.391,182.878L107.465,183.237L108.538,182.719L109.611,182.366L110.684,183.362L111.757,182.006L112.83,181.796L113.903,181.566L114.976,182.948L116.049,181.932L117.122,181.246L118.195,180.272L119.268,180.219L120.341,182.286L121.414,181.553L122.487,179.974L123.56,179.69L124.633,179.891L125.707,181.047L126.78,180.459L127.853,180.314L128.926,178.726L129.999,180.195L131.072,180.305L132.145,178.842L133.218,178.445L134.291,179.89L135.364,179.154L136.437,178.21L137.51,178.504L138.583,178.339L139.656,178.08L140.729,177.101L141.802,177.061L142.875,177.113L143.948,176.916L145.021,179.478L146.094,177.094L147.167,176.664L148.24,176.294L149.314,177.653L150.387,175.95L151.46,176.627L152.533,176.226L153.606,176.827L154.679,175.52L155.752,174.724L156.825,175.964L157.898,175.625L158.971,177.332L160.044,176.005L161.117,176.488L162.19,176.676L163.263,174.562L164.336,174.647L165.409,175.403L166.482,174.887L167.555,174.594L168.628,174.585L169.701,174.891L170.774,175.236L171.847,176.353L172.921,174.782L173.994,173.224L175.067,174.354L176.14,173.729L177.213,175.756L178.286,175.074L179.359,174.771L180.432,173.216L181.505,173.137L182.578,172.729L183.651,175.261L184.724,172.931L185.797,173.363L186.87,173.314L187.943,172.367L189.016,174.45L190.089,172.856L191.162,172.688L192.235,173.182L193.308,173.269L194.381,172.804L195.454,171.608L196.528,172.006L197.601,172.142L198.674,172.305L199.747,172.374L200.82,172.621L201.893,172.033L202.966,172.723L204.039,171.665L205.112,171.876L206.185,170.868L207.258,171.924L208.331,170.512L209.404,171.007L210.477,172.006L211.55,171.861L212.623,170.764L213.696,172.905L214.769,170.688L215.842,170.49L216.915,171.252L217.988,169.976L219.061,171.13L220.135,169.98L221.208,171.616L222.28,170.791L223.354,170.527L224.427,170.648L225.5,170.006L226.573,170.327L227.646,171.274L228.719,169.727L229.792,169.078L230.865,169.953L231.938,170.347L233.011,169.918L234.084,169.831L235.157,169.569L236.23,168.27L237.303,169.044L238.376,169.914L239.449,169.495L240.522,170.186L241.595,171.414L242.668,168.901L243.742,169.8L244.815,169.397L245.887,168.821L246.961,169.619L248.034,169.054L249.107,168.968L250.18,169.357L251.253,169.157L252.325,169.075L253.4,169.256L254.473,168.869L255.545,168.585L256.618,168.577L257.69,168.299L258.765,168.834L259.837,168.5L260.91,168.129L261.983,169.189L263.055,167.942L264.13,169.356L265.203,168.326L266.275,168.365L267.348,169.501L268.423,167.115L269.495,166.546L270.568,167.992L271.64,167.034L272.713,168.235L273.788,165.668L274.86,165.97L275.933,167.541L277.005,166.336L278.08,168.296L279.152,168.034L280.225,166.917L281.298,168.537L282.37,165.643L283.445,169.073L284.518,168.034L285.59,165.004L286.663,167.256L287.738,166.428L288.81,168.945L289.883,166.595L290.955,168.554L292.027,166.109L293.103,167.555L294.175,167.18L295.248,168.043L296.32,166.622L297.393,166.93L298.467,167.597L299.54,165.956L300.613,165.943L301.685,167.389L302.76,167.156L303.833,165.577L304.905,166.613L305.978,165.638L307.05,167.236L308.125,166.493L309.198,165.052L310.27,167.872L311.342,166.831L312.418,166.181L313.49,166.246L314.563,166.685L315.635,166.881L316.708,167.115L317.783,165.907L318.855,165.709L319.928,163.728L321,163.744L322.073,164.337L323.148,165.841L324.22,165.784L325.293,165.247L326.365,165L327.44,164.985L328.513,163.486L329.585,163.557L330.658,166.015L331.73,163.225L332.805,163.941L333.878,166.246L334.95,165.147L336.023,165.957L337.098,165.82L338.17,164.332L339.243,165.867L340.315,165.617L341.388,164.391L342.462,164.492L343.535,165.184L344.608,163.943L345.68,164.012L346.755,163.432L347.828,164.34L348.9,165.956L349.973,164.65L351.045,164.255L352.12,164.542L353.193,164.387L354.265,164.868L355.337,165.657L356.41,164.849L357.485,165.382L358.558,165.206L359.63,163.147L360.703,164.512L361.777,164.44L362.85,162.647L363.923,164.18L364.995,163.06L366.068,162.823L367.143,164.257L368.215,163.266L369.288,162.785L370.36,164.729L371.435,162.611L372.508,162.203L373.58,162.031L374.652,163.119L375.725,163.677L376.8,164.304L377.873,164.526L378.945,163.962L380.018,162.922L381.09,163.204L382.165,163.816L383.238,162.276L384.31,164.935L385.383,162.998L386.458,163.276L387.53,163.749L388.603,162.732L389.675,162.817L390.748,162.967L391.823,162.21L392.895,162.911L393.967,164.312L395.04,162.791L396.115,162.17L397.188,162.431L398.26,161.335L399.333,162.498L400.405,161.606L401.48,163.979L402.553,163.344L403.625,163.378L404.698,161.42L405.773,164.2L406.845,161.042L407.918,164.05L408.99,162.128L410.063,163.284L411.138,162.206L412.21,161.704L413.283,164.44L414.355,162.566L415.428,162.785L416.503,162.084L417.575,161.958L418.647,162.475L419.72,162.866L420.795,162.504L421.868,160.909L422.94,163.363L424.013,163.317L425.085,161.124L426.16,162.966L427.233,160.62L428.305,163.288L429.378,160.866L430.453,162.022L431.525,160.94L432.598,163.051L433.67,161.761L434.743,162.719L435.818,162.25L436.89,160.963L437.962,161.355L439.035,161.461L440.108,161.137L441.183,162.031L442.255,161.072L443.328,161.649L444.4,161.202L445.475,160.366L446.548,160.395L447.62,162.669L448.693,159.774L449.765,163.016L450.84,161.83L451.913,161.42L452.985,160.695L454.058,161.102L455.133,160.836L456.205,160.689L457.277,163.65L458.35,161.021L459.423,160.599L460.498,160.736L461.57,161.973L462.643,159.236L463.715,159.847L464.79,160.973L465.863,160.759L466.935,160.971L468.008,159.735L469.08,158.352L470.155,159.58L471.228,157.592L472.3,162.688L473.373,161.051L474.445,160.435L475.52,160.495L476.592,160.607L477.665,161.433L478.738,159.372L479.813,161.177L480.885,160.237L481.958,159.588L483.03,159.632L484.103,160.001L485.178,159.703L486.25,160.231L487.323,159.202L488.395,160.56L489.47,159.56L490.543,160.285L491.615,159.589L492.688,160.157L493.76,160.422L494.835,159.311L495.908,157.971L496.98,157.214L498.053,160.267L499.125,160.83L500.2,158.848L501.272,159.856L502.345,160.476L503.418,159.483L504.493,160.99L505.565,159L506.638,160.29L507.71,159.422L508.783,157.768L509.858,159.152L510.93,159.348L512.003,161.159L513.075,159.916L514.15,159.931L515.222,158.878L516.295,158.952L517.367,158.357L518.44,161.002L519.515,158.637L520.587,159.299L521.66,160.479L522.732,159.457L523.808,158.725L524.88,159.616L525.953,157.924L527.025,160.259L528.098,158.827L529.173,159.905L530.245,158.833L531.318,158.457L532.39,159.204L533.463,158.594L534.538,159.323L535.61,159.898L536.683,159.5L537.755,159.043L538.83,158.588L539.903,158.751L540.975,158.44L542.048,156.811L543.12,160.416L544.195,158.868L545.268,159.235L546.34,158.735L547.413,159.614L548.488,157.873L549.56,159.295L550.633,157.999L551.705,159.258L552.778,159.882L553.853,157.804L554.925,158.138L555.997,159.127L557.07,158.944L558.143,158.472L559.218,158.895L560.29,157.877L561.363,157.997L562.435,157.636L563.51,157.63L564.583,158.869L565.655,157.033L566.728,159.018L567.8,158.834L568.875,159.362L569.948,156.73L571.02,158.888L572.093,155.39L573.168,158.603L574.24,159.604L575.313,157.255L576.385,159.337L577.458,158.308L578.533,158.222L579.605,160.032L580.678,158.33L581.75,157.24L582.823,159.665L583.898,158.246L584.97,158.456L586.043,157.192L587.115,158.067" style="fill:none;fill-rule:nonzero;stroke:rgb(33,191,81);stroke-width:1.5px;"/>
        <path d="M51.666,176.08L52.739,145.773L53.812,133.835L54.886,128.919L55.959,123.606L57.032,121.314L58.105,122.398L59.178,120.069L60.251,113.297L61.324,109.28L62.397,100.381L63.47,96.22L64.543,104.216L65.616,107.763L66.689,108.142L67.762,106.435L68.835,102.571L69.908,96.424L70.981,91.669L72.054,96.314L73.127,98.79L74.2,94.042L75.273,95.869L76.346,97.804L77.419,90.194L78.493,84.703L79.566,88.493L80.638,94.878L81.712,87.341L82.784,89.347L83.858,87.852L84.931,85.739L86.004,87.348L87.077,89.292L88.15,80.909L89.223,84.188L90.296,96.025L91.369,79.341L92.442,87.797L93.515,80.131L94.588,76.963L95.661,80.069L96.734,91.08L97.807,82.157L98.88,77.615L99.953,77.732L101.026,80.677L102.1,86.406L103.173,80.076L104.246,81.106L105.319,77.101L106.391,77.921L107.465,74.003L108.538,79.256L109.611,65.318L110.684,81.564L111.757,80.315L112.83,73.435L113.903,72.516L114.976,65.137L116.049,61.996L117.122,95.043L118.195,75.653L119.268,75.133L120.341,65.881L121.414,72.638L122.487,74.646L123.56,75.123L124.633,71.937L125.707,80.716L126.78,62.471L127.853,75.187L128.926,84.022L129.999,68.879L131.072,65.18L132.145,72.386L133.218,76.886L134.291,53.938L135.364,68.697L136.437,68.38L137.51,69.309L138.583,76.203L139.656,77.163L140.729,71.291L141.802,73.976L142.875,67.242L143.948,53.001L145.021,56.692L146.094,75.651L147.167,62.441L148.24,68.416L149.314,65.272L150.387,64.676L151.46,76.842L152.533,71.078L153.606,73.947L154.679,71.031L155.752,78.976L156.825,70.671L157.898,63.327L158.971,66.303L160.044,72.044L161.117,52.477L162.19,73.846L163.263,64.654L164.336,65.106L165.409,69.174L166.482,71.99L167.555,74.719L168.628,72.782L169.701,64.835L170.774,63.891L171.847,52.602L172.921,59.462L173.994,62.816L175.067,63.001L176.14,51.848L177.213,53.986L178.286,58.352L179.359,50.833L180.432,60.724L181.505,65.996L182.578,74.062L183.651,62.167L184.724,63.605L185.797,54.669L186.87,75.394L187.943,51.597L189.016,57.016L190.089,64.728L191.162,60.363L192.235,57.373L193.308,54.131L194.381,56.337L195.454,63.696L196.528,60.585L197.601,64.513L198.674,52.382L199.747,60.024L200.82,61.013L201.893,52.114L202.966,55.899L204.039,65.238L205.112,57.788L206.185,61.842L207.258,46.212L208.331,71.597L209.404,65.022L210.477,43.452L211.55,61.14L212.623,62.844L213.696,57.371L214.769,49.783L215.842,42.665L216.915,70.329L217.988,59.992L219.061,52.99L220.135,58.982L221.208,51.171L222.28,53.161L223.354,61.088L224.427,59.884L225.5,50.437L226.573,57.245L227.646,51.713L228.719,65.906L229.792,62.011L230.865,66.011L231.938,50.822L233.011,61.282L234.084,66.051L235.157,63.265L236.23,59.96L237.303,52.64L238.376,54.337L239.449,74.922L240.522,48.772L241.595,60.156L242.668,60.527L243.742,62.119L244.815,47.599L245.887,53.09L246.961,43.051L248.034,59.131L249.107,57.634L250.18,54.312L251.253,48.308L252.325,55.335L253.4,55.695L254.473,59.539L255.545,51.092L256.618,46.127L257.69,49.262L258.765,50.636L259.837,42.179L260.91,52.754L261.983,46.278L263.055,59.74L264.13,32.733L265.203,54.38L266.275,50.636L267.348,37.738L268.423,38.892L269.495,49.577L270.568,57.859L271.64,46.129L272.713,64.221L273.788,62.891L274.86,61.026L275.933,49.069L277.005,50.297L278.08,42.679L279.152,48.498L280.225,62.23L281.298,50.676L282.37,53.719L283.445,48.862L284.518,42.611L285.59,45.88L286.663,40.186L287.738,53.03L288.81,51.483L289.883,50.5L290.955,39.067L292.027,41.898L293.103,34.588L294.175,40.736L295.248,32.648L296.32,35.132L297.393,62.406L298.467,43.978L299.54,44.936L300.613,62.911L301.685,50.67L302.76,52.387L303.833,41.263L304.905,38.234L305.978,59.608L307.05,45.614L308.125,46.476L309.198,46.014L310.27,34.43L311.342,50.458L312.418,51.63L313.49,58.56L314.563,58.06L315.635,44.231L316.708,47.661L317.783,39.107L318.855,47.851L319.928,61.08L321,63.046L322.073,64.43L323.148,35.233L324.22,50.746L325.293,58.649L326.365,31.744L327.44,29.999L328.513,62.892L329.585,52.806L330.658,59.022L331.73,54.058L332.805,38.298L333.878,35.582L334.95,35.445L336.023,35.622L337.098,42.379L338.17,51.424L339.243,37.445L340.315,46.897L341.388,47.914L342.462,51.003L343.535,39.086L344.608,55.819L345.68,54.328L346.755,36.77L347.828,40.426L348.9,48.428L349.973,49.754L351.045,41.021L352.12,41.622L353.193,47.924L354.265,43.589L355.337,41.598L356.41,53.536L357.485,42.748L358.558,45.886L359.63,42.989L360.703,58.418L361.777,35.125L362.85,66.819L363.923,41.534L364.995,51.729L366.068,52.46L367.143,46.511L368.215,51.91L369.288,63.999L370.36,33.761L371.435,36.274L372.508,48.107L373.58,57.978L374.652,51.254L375.725,33.402L376.8,30.027L377.873,25.424L378.945,34.827L380.018,48.788L381.09,38.877L382.165,53.257L383.238,44.484L384.31,33.675L385.383,31.032L386.458,45.358L387.53,41.745L388.603,51.6L389.675,38.622L390.748,52.102L391.823,47.456L392.895,43.404L393.967,25.385L395.04,39.783L396.115,44.047L397.188,25.916L398.26,52.95L399.333,60.463L400.405,43.719L401.48,41.755L402.553,39.137L403.625,23.694L404.698,47.38L405.773,36.563L406.845,46.736L407.918,20.698L408.99,39.009L410.063,48.736L411.138,51.888L412.21,42.053L413.283,41.521L414.355,40.895L415.428,41.431L416.503,56.165L417.575,35.465L418.647,38.48L419.72,44.952L420.795,33.677L421.868,50.524L422.94,43.641L424.013,49.837L425.085,46.853L426.16,47.153L427.233,36.203L428.305,51.926L429.378,43.645L430.453,38.529L431.525,43.495L432.598,40.792L433.67,34.722L434.743,31.391L435.818,29.289L436.89,37.222L437.962,52.8L439.035,43.064L440.108,41.532L441.183,39.605L442.255,40.073L443.328,26.539L444.4,48.951L445.475,40.867L446.548,49.752L447.62,24.725L448.693,42.592L449.765,45.202L450.84,35.21L451.913,29.047L452.985,38.954L454.058,44.606L455.133,27.172L456.205,39.542L457.277,11.811L458.35,35.002L459.423,47.147L460.498,48.921L461.57,37.644L462.643,27.881L463.715,34.244L464.79,47.471L465.863,30.338L466.935,46.487L468.008,49.748L469.08,49.512L470.155,39.888L471.228,40.205L472.3,37.435L473.373,55.048L474.445,21.513L475.52,40.579L476.592,41.037L477.665,35.694L478.738,42.504L479.813,38.373L480.885,46.22L481.958,51.934L483.03,36.219L484.103,47.95L485.178,39.709L486.25,49.686L487.323,37.607L488.395,32.526L489.47,49.334L490.543,33.609L491.615,42.183L492.688,39.385L493.76,39.878L494.835,45.264L495.908,54.559L496.98,45.026L498.053,28.913L499.125,41.767L500.2,42.667L501.272,43.084L502.345,50.139L503.418,37.508L504.493,29.894L505.565,31.329L506.638,45.807L507.71,29.025L508.783,59.292L509.858,58.716L510.93,31.879L512.003,26.314L513.075,20.484L514.15,31.032L515.222,56.241L516.295,55.336L517.367,49.401L518.44,48.959L519.515,43.725L520.587,48.586L521.66,31.666L522.732,29.872L523.808,44.344L524.88,38.995L525.953,44.691L527.025,32.781L528.098,39.712L529.173,31.262L530.245,48.18L531.318,31.382L532.39,23.436L533.463,38.031L534.538,35.369L535.61,48.14L536.683,48.307L537.755,42.272L538.83,25.634L539.903,33.868L540.975,48.067L542.048,42.943L543.12,33.628L544.195,33.266L545.268,30.389L546.34,49.469L547.413,23.07L548.488,38.256L549.56,50.095L550.633,27.37L551.705,20.937L552.778,34.26L553.853,28.77L554.925,39.491L555.997,29.404L557.07,27.052L558.143,35.495L559.218,38.295L560.29,32.966L561.363,44.387L562.435,48.681L563.51,43.268L564.583,30.154L565.655,39.436L566.728,33.64L567.8,15.989L568.875,18.347L569.948,39.969L571.02,36.681L572.093,54.041L573.168,33.478L574.24,36.48L575.313,39.693L576.385,42.638L577.458,20.667L578.533,35.942L579.605,22.697L580.678,44.123L581.75,36.224L582.823,34.58L583.898,40.487L584.97,32.444L586.043,42.667L587.115,24.136" style="fill:none;fill-rule:nonzero;stroke:rgb(33,53,165);stroke-width:1.5px;"/>
        <path d="M51.666,284.588L52.739,276.533L53.812,273.49L54.886,271.518L55.959,270.048L57.032,268.88L58.105,267.905L59.178,267.073L60.251,266.342L61.324,265.695L62.397,265.118L63.47,264.588L64.543,264.1L65.616,263.655L66.689,263.238L67.762,262.853L68.835,262.488L69.908,262.145L70.981,261.823L72.054,261.512L74.2,260.948L75.273,260.685L76.346,260.435L77.419,260.19L78.493,259.957L79.566,259.733L80.638,259.517L81.712,259.315L82.784,259.108L83.858,258.92L84.931,258.73L86.004,258.548L87.077,258.373L88.15,258.2L89.223,258.035L90.296,257.875L91.369,257.715L93.515,257.41L94.588,257.272L95.661,257.128L96.734,256.988L97.807,256.853L98.88,256.72L99.953,256.592L101.026,256.47L102.1,256.342L103.173,256.22L104.246,256.103L105.319,255.99L106.391,255.87L107.465,255.762L108.538,255.65L109.611,255.542L110.684,255.438L112.83,255.232L113.903,255.133L114.976,255.03L116.049,254.94L117.122,254.84L118.195,254.748L119.268,254.653L121.414,254.478L122.487,254.387L123.56,254.303L124.633,254.21L125.707,254.133L126.78,254.053L127.853,253.965L128.926,253.883L129.999,253.81L131.072,253.728L132.145,253.648L133.218,253.573L134.291,253.495L135.364,253.423L136.437,253.345L137.51,253.28L138.583,253.205L139.656,253.137L140.729,253.063L141.802,252.993L142.875,252.928L143.948,252.863L145.021,252.79L147.167,252.66L148.24,252.603L149.314,252.528L150.387,252.47L151.46,252.41L152.533,252.343L153.606,252.285L154.679,252.228L155.752,252.16L156.825,252.103L157.898,252.042L158.971,251.993L160.044,251.93L161.117,251.875L162.19,251.815L164.336,251.705L165.409,251.653L166.482,251.595L167.555,251.54L169.701,251.44L170.774,251.383L171.847,251.335L172.921,251.28L175.067,251.18L176.14,251.128L177.213,251.08L178.286,251.033L179.359,250.975L181.505,250.89L182.578,250.838L183.651,250.792L184.724,250.74L185.797,250.7L186.87,250.648L189.016,250.563L190.089,250.508L191.162,250.475L192.235,250.428L193.308,250.373L194.381,250.345L195.454,250.29L196.528,250.253L197.601,250.208L198.674,250.165L199.747,250.128L200.82,250.08L201.893,250.045L202.966,249.999L204.039,249.958L205.112,249.919L206.185,249.879L207.258,249.835L208.331,249.798L209.404,249.76L210.477,249.714L211.55,249.686L212.623,249.642L213.696,249.603L214.769,249.564L215.842,249.523L216.915,249.488L217.988,249.452L219.061,249.411L220.135,249.376L221.208,249.344L222.28,249.298L223.354,249.271L224.427,249.232L225.5,249.198L226.573,249.157L227.646,249.125L228.719,249.09L229.792,249.054L230.865,249.021L231.938,248.983L233.011,248.95L234.084,248.915L235.157,248.882L236.23,248.851L237.303,248.817L238.376,248.78L239.449,248.749L240.522,248.718L241.595,248.679L242.668,248.652L243.742,248.615L244.815,248.59L245.887,248.555L246.961,248.517L248.034,248.49L249.107,248.458L250.18,248.424L251.253,248.392L252.325,248.371L253.4,248.327L254.473,248.298L255.545,248.277L256.618,248.239L257.69,248.214L258.765,248.184L259.837,248.148L260.91,248.121L261.983,248.093L263.055,248.06L264.13,248.031L265.203,248.002L266.275,247.978L267.348,247.945L268.423,247.921L269.495,247.885L270.568,247.857L271.64,247.836L272.713,247.797L273.788,247.777L274.86,247.748L275.933,247.716L277.005,247.693L278.08,247.667L279.152,247.637L280.225,247.609L281.298,247.583L282.37,247.555L283.445,247.525L284.518,247.501L285.59,247.476L286.663,247.447L287.738,247.425L288.81,247.396L289.883,247.367L290.955,247.343L292.027,247.319L293.103,247.294L294.175,247.265L295.248,247.241L296.32,247.214L297.393,247.192L298.467,247.161L299.54,247.137L300.613,247.112L301.685,247.092L302.76,247.062L303.833,247.043L304.905,247.014L305.978,246.994L307.05,246.963L308.125,246.937L309.198,246.925L310.27,246.887L311.342,246.87L312.418,246.846L313.49,246.82L314.563,246.799L315.635,246.774L316.708,246.754L317.783,246.729L318.855,246.695L319.928,246.69L321,246.658L322.073,246.63L323.148,246.611L324.22,246.59L325.293,246.565L326.365,246.546L327.44,246.522L328.513,246.497L329.585,246.467L330.658,246.461L331.73,246.429L332.805,246.41L333.878,246.389L334.95,246.361L336.023,246.342L337.098,246.321L338.17,246.304L339.243,246.274L340.315,246.258L341.388,246.234L342.462,246.216L343.535,246.193L344.608,246.164L345.68,246.155L346.755,246.122L347.828,246.109L348.9,246.088L349.973,246.061L351.045,246.042L352.12,246.026L353.193,246.005L354.265,245.981L355.337,245.962L356.41,245.944L357.485,245.916L358.558,245.899L359.63,245.884L360.703,245.854L361.777,245.848L362.85,245.819L363.923,245.798L364.995,245.782L366.068,245.762L367.143,245.74L368.215,245.721L369.288,245.695L370.36,245.679L371.435,245.661L372.508,245.648L373.58,245.62L374.652,245.607L375.725,245.582L376.8,245.569L377.873,245.546L378.945,245.529L380.018,245.503L381.09,245.492L382.165,245.47L383.238,245.45L384.31,245.442L385.383,245.411L386.458,245.39L387.53,245.383L388.603,245.357L389.675,245.337L390.748,245.325L391.823,245.304L392.895,245.286L393.967,245.259L395.04,245.256L396.115,245.228L397.188,245.214L398.26,245.192L399.333,245.178L400.405,245.161L401.48,245.14L402.553,245.122L403.625,245.106L404.698,245.086L405.773,245.072L406.845,245.055L407.918,245.035L408.99,245.011L410.063,245.004L411.138,244.984L412.21,244.963L413.283,244.948L414.355,244.939L415.428,244.908L416.503,244.903L417.575,244.875L418.647,244.859L419.72,244.848L420.795,244.832L421.868,244.813L422.94,244.799L424.013,244.779L425.085,244.759L426.16,244.746L427.233,244.726L428.305,244.711L429.378,244.699L430.453,244.682L431.525,244.661L432.598,244.645L433.67,244.635L434.743,244.607L435.818,244.599L436.89,244.579L437.962,244.569L439.035,244.551L440.108,244.527L441.183,244.524L442.255,244.492L443.328,244.49L444.4,244.476L445.475,244.452L446.548,244.434L447.62,244.423L448.693,244.406L449.765,244.39L450.84,244.376L451.913,244.357L452.985,244.343L454.058,244.336L455.133,244.308L456.205,244.298L457.277,244.277L458.35,244.269L459.423,244.248L460.498,244.246L461.57,244.22L462.643,244.205L463.715,244.195L464.79,244.174L465.863,244.161L466.935,244.146L468.008,244.125L469.08,244.118L470.155,244.098L471.228,244.092L472.3,244.069L473.373,244.059L474.445,244.041L475.52,244.027L476.592,244.008L477.665,244.002L478.738,243.974L479.813,243.968L480.885,243.962L481.958,243.941L483.03,243.924L484.103,243.911L485.178,243.893L486.25,243.884L487.323,243.865L488.395,243.852L489.47,243.836L490.543,243.827L491.615,243.811L492.688,243.804L493.76,243.779L494.835,243.763L495.908,243.758L496.98,243.739L498.053,243.728L499.125,243.714L500.2,243.696L501.272,243.684L502.345,243.674L503.418,243.658L504.493,243.641L505.565,243.633L506.638,243.611L507.71,243.607L508.783,243.587L509.858,243.577L510.93,243.559L512.003,243.545L513.075,243.534L514.15,243.524L515.222,243.501L516.295,243.497L517.367,243.484L518.44,243.463L519.515,243.456L520.587,243.44L521.66,243.423L522.732,243.417L523.808,243.398L524.88,243.388L525.953,243.374L527.025,243.366L528.098,243.345L529.173,243.339L530.245,243.319L532.39,243.299L533.463,243.284L534.538,243.273L535.61,243.258L536.683,243.244L537.755,243.232L538.83,243.223L539.903,243.2L540.975,243.189L542.048,243.188L543.12,243.168L544.195,243.151L545.268,243.147L546.34,243.125L547.413,243.119L548.488,243.101L549.56,243.095L550.633,243.078L551.705,243.075L552.778,243.054L553.853,243.036L554.925,243.035L555.997,243.017L557.07,243.007L558.143,242.991L559.218,242.979L560.29,242.973L561.363,242.957L562.435,242.943L563.51,242.929L564.583,242.923L565.655,242.904L566.728,242.902L567.8,242.887L568.875,242.862L569.948,242.857L571.02,242.857L572.093,242.829L573.168,242.826L574.24,242.81L575.313,242.807L576.385,242.779L577.458,242.781L578.533,242.764L579.605,242.755L580.678,242.737L581.75,242.728L582.823,242.716L583.898,242.706L584.97,242.693L586.043,242.683L587.115,242.662" style="fill:none;fill-rule:nonzero;stroke:rgb(127,127,127);stroke-width:1.5px;"/>
    </g>
</svg>
